<svg width="694" height="800" viewBox="0 0 694 800" fill="none" xmlns="http://www.w3.org/2000/svg">
<path d="M130.5 34L134 35.5L137 55.5L139 61.5L140 74.5L145 96.5L146 108.5L151 131.5L170.5 160L223.5 191L228 195.5L231 200.5L251 263.5L248.5 265L151 196L148 191.5L128 139.5V88.5L129 87.5V35.5L130.5 34Z" fill="#F0F0EC"/>
<path d="M561.5 34L565 35.5L566 139.5L546 191.5L538.5 199L444.5 265L443 261.5L464 198.5L469.5 192L518.5 164L525 158.5L542 133.5L544 127.5L549 96.5L551 90.5L553 73.5L555 67.5L556 56.5L558 50.5L559 39.5L561.5 34Z" fill="#F0F0EC"/>
<path d="M193.5 83L262.5 94L268.5 96L271 98.5L328 224.5L330 231.5L336 242.5L338 249.5L347.5 268L424.5 97L427.5 95L437.5 93H442.5L448.5 91H454.5L479.5 86H485.5L492.5 84H498.5L501 83C502 85.5333 501.5 86.5333 499.5 86L465 113.5L347.5 364L341 353.5L232 118.5L225.5 110L192 84.5L193.5 83Z" fill="#F0F0EC"/>
<path d="M254 283C257 282.467 259.167 283.133 260.5 285L306 320.5L311 328.5L312 339.5L313 340.5L315 375.5L316 376.5V385.5L317 386.5V395.5L318 396.5V405.5L320 416.5V427.5L321 428.5V437.5L323 448.5V459.5L324 460.5V469.5L325 470.5V479.5L326 480.5V489.5L327 490.5V500.5L328 501.5V511.5L329 512.5V522.5L330 523.5V533.5L331 534.5V543.5L332 544.5V553.5L333 554.5V564.5L334 565.5L335 579.5C333.867 582.3 332.7 582.8 331.5 581C327.7 580.2 324.867 578.367 323 575.5L293 511.5L275 484.5L273 465.5L271 458.5V452.5L268 439.5V432.5L264 413.5V407.5L263 406.5L259 377.5L261.5 375L271.5 373L274 370.5L272 350.5L261.5 339L251 329.5L249 316.5L252 300.5L253 285.5L254 283Z" fill="#F0F0EC"/>
<path d="M436.5 283C439.033 282.533 440.533 283.033 441 284.5V292.5L442 293.5L445 319.5L444 320.5V327.5L436 372.5L433 397.5L396 455.5L394 463.5L391 506L400 498.5L417.5 479L420 479.5L418 487.5C401.333 513.167 386.667 540.833 374 570.5L367.5 579L360.5 582L359 580.5V572.5L361 561.5V550.5L362 549.5V540.5L363 539.5V530.5L365 519.5V509.5L366 508.5V498.5L367 497.5L368 476.5L369 475.5L372 438.5L374 432.5L414 377.5L418 340L412.5 342L404 349.5L402 356.5L401 371.5L391.5 381L378.5 393H376L381 331.5C382.667 325.833 385.5 321.333 389.5 318L436.5 283Z" fill="#F0F0EC"/>
<path d="M281 518L284 519.5L299 559.5L315 595.5L317 605.5L315 613.5L314 632.5C312.533 633.3 312.2 635.3 313 638.5L311.5 640C308.567 641 307.4 640.5 308 638.5L299 625.5L295 615.5V608.5L285 551.5V544.5L283 538.5L281 518Z" fill="#F0F0EC"/>
<path d="M411 518L413 518.5V525.5L412 526.5L408 557.5L406 564.5V570.5L404 577.5V583.5L400 602.5L399 615.5L396 623.5L384.5 640H381V633.5L380 632.5V625.5L377 608.5V599.5L411 518Z" fill="#F0F0EC"/>
<path d="M624.5 706H649.5C650.5 707.667 652.833 708 656.5 707C664.1 708.667 670.267 711.333 675 715V717C676.8 716.267 677.467 716.767 677 718.5C682.533 722.367 684.533 729.7 683 740.5C681.733 746.233 679.233 750.733 675.5 754C670.767 758.6 664.433 761.6 656.5 763C652.833 762 650.5 762.333 649.5 764H623.5L607.5 760C602.367 757.867 598.2 754.7 595 750.5C591 745.833 589.667 738.5 591 728.5C592.867 722.367 596.033 717.533 600.5 714L607.5 710L616.5 707C620.633 708.2 623.3 707.867 624.5 706ZM627 710L613 715L607 721L603 733L604 744L607 750L616 757L629 760L653 759L662 755L668 748L671 737L669 725L665 719C661.667 715 657.667 712.333 653 711L648 710H627Z" fill="#F0F0EC"/>
<path d="M31.5 707L35.5 708L37.5 707C38.7 708.867 41.3667 709.2 45.5 708L50.5 707L49 709.5L47 716.5L48 718.5V720.5V759H89.5C90.5 757.333 92.8333 757 96.5 758L103.5 753L104 763L31 762.5L34 761L35 757.5V711.5L34 709L31.5 707Z" fill="#F0F0EC"/>
<path d="M206.5 707C207.3 708.533 209.3 708.867 212.5 708L213.5 707H224V709C222.2 708.267 221.533 708.767 222 710.5L221 711.5V743.5C222.2 748.633 224.7 752.467 228.5 755L237.5 759L252.5 760L253.5 759L265.5 758C270.433 756.267 274.267 753.433 277 749.5L279 744.5V711.5L276 707.5L277.5 707L280.5 708L282.5 707H284.5L287 707.5L284 712.5V743.5C283 749.5 280.5 754 276.5 757L267.5 762L258.5 764H236.5L223.5 761L213 753.5L209 745.5V714.5L206.5 707Z" fill="#F0F0EC"/>
<path d="M391 707L394.5 708L395.5 707H405.5L440.5 746L449 735C450.8 735.733 451.467 735.233 451 733.5L474.5 707H487.5L488 708.5L485 712.5V755.5L486 759.5L489 762.5L470.5 763L472 760.5L473 758.5V716.5L470 718.5L436.5 758L400 718.5V717L398 717.5V757.5L401 762.5L391 763C393 760.867 394 757.367 394 752.5L393 749.5L394 748.5V713.5L391 707Z" fill="#F0F0EC"/>
<path d="M324.5 605H369.5L371 606.5L375 640.5L373.5 642H320.5C318.367 640.867 317.867 638.033 319 633.5L320 632.5L322 610.5L324.5 605Z" fill="#A71920"/>
</svg>
